<svg width="359" height="100" viewBox="0 0 359 100" fill="none" xmlns="http://www.w3.org/2000/svg">
<path d="M205.339 64.2544C205.339 73.8674 199.19 81.4022 183.081 81.4022H154.069V22.51H179.618C196.679 22.51 202.048 29.2652 202.048 38.7053C202.048 44.7677 197.805 49.0118 196.506 49.9644C202.222 52.8222 205.34 57.9321 205.34 64.2544H205.339ZM188.538 40.5236C188.538 36.5402 185.94 34.6342 180.483 34.6342H168.272V46.9321H180.483C186.632 46.9321 188.538 45.1144 188.538 40.5236ZM181.436 57.7591H168.272V69.1912H181.436C187.152 69.1912 190.01 67.286 190.01 63.4755C190.01 59.1446 187.066 57.7591 181.436 57.7591Z" fill="white"/>
<path d="M222.942 67.4966H253.359V80.4474H208.969V22.51H222.942L222.942 67.4966Z" fill="white"/>
<path d="M309.252 50.7121C309.252 69.8825 297.154 81.4702 280.965 81.4702C264.521 81.4702 253.359 69.8825 253.359 50.7121V22.51H267.332V50.7121C267.332 61.8735 272.104 68.5202 280.965 68.5202C289.656 68.5202 295.109 61.8743 295.109 50.7121V22.51H309.253V50.7121H309.252Z" fill="white"/>
<path d="M358.046 22.51V35.4609H327.629V45.4293H353.019V57.5281H327.629V67.4966H358.046V80.4474H313.656V22.51H358.046Z" fill="white"/>
<path d="M159.715 97.1907L158.252 95.0944C158.16 95.1045 158.068 95.1045 157.975 95.1045H156.36V97.1914H155.03V90.0316H157.975C159.858 90.0316 161.023 90.9929 161.023 92.5789C161.023 93.6625 160.471 94.461 159.5 94.8388L161.146 97.1914H159.714L159.715 97.1907ZM157.914 91.1558H156.36V94.0093H157.914C159.08 94.0093 159.684 93.4779 159.684 92.5774C159.684 91.6769 159.08 91.1558 157.914 91.1558Z" fill="white"/>
<path d="M171.73 96.0759V97.1907H166.36V90.0309H171.587V91.1456H167.69V93.0067H171.147V94.1012H167.69V96.0759H171.73Z" fill="white"/>
<path d="M176.463 96.4335L176.923 95.4005C177.496 95.8609 178.406 96.1881 179.287 96.1881C180.401 96.1881 180.871 95.7893 180.871 95.2572C180.871 93.7132 176.616 94.7259 176.616 92.0664C176.616 90.9103 177.536 89.9288 179.5 89.9288C180.36 89.9288 181.26 90.1546 181.884 90.5629L181.464 91.5966C180.82 91.218 180.114 91.0341 179.49 91.0341C178.385 91.0341 177.936 91.4641 177.936 92.0056C177.936 93.5293 182.18 92.5376 182.18 95.166C182.18 96.3119 181.25 97.2935 179.286 97.2935C178.171 97.2935 177.056 96.946 176.463 96.4335Z" fill="white"/>
<path d="M188.704 91.1558H186.331V90.0309H192.408V91.1558H190.035V97.1907H188.705L188.704 91.1558Z" fill="white"/>
<path d="M196.649 93.6111C196.649 91.4938 198.286 89.9288 200.505 89.9288C202.724 89.9288 204.361 91.4829 204.361 93.6111C204.361 95.7393 202.724 97.2935 200.505 97.2935C198.286 97.2935 196.649 95.7284 196.649 93.6111ZM203.021 93.6111C203.021 92.1482 201.948 91.0949 200.505 91.0949C199.062 91.0949 197.989 92.1482 197.989 93.6111C197.989 95.0741 199.062 96.1273 200.505 96.1273C201.948 96.1273 203.021 95.0741 203.021 93.6111Z" fill="white"/>
<path d="M214.311 97.1907L212.848 95.0944C212.756 95.1045 212.664 95.1045 212.571 95.1045H210.955V97.1914H209.626V90.0316H212.571C214.454 90.0316 215.619 90.9929 215.619 92.5789C215.619 93.6625 215.067 94.461 214.096 94.8388L215.742 97.1914H214.31L214.311 97.1907ZM212.51 91.1558H210.955V94.0093H212.51C213.676 94.0093 214.279 93.4779 214.279 92.5774C214.279 91.6769 213.676 91.1558 212.51 91.1558Z" fill="white"/>
<path d="M225.6 95.5337H222.02L221.314 97.1907H219.943L223.165 90.0309H224.475L227.707 97.1907H226.315L225.6 95.5337ZM225.16 94.4899L223.81 91.3606L222.47 94.4899H225.16Z" fill="white"/>
<path d="M233.565 91.1558H231.192V90.0309H237.268V91.1558H234.895V97.1907H233.566V91.1558H233.565Z" fill="white"/>
<path d="M242.124 90.0309H243.454V97.1907H242.124V90.0309Z" fill="white"/>
<path d="M248.729 93.6111C248.729 91.4938 250.366 89.9288 252.586 89.9288C254.805 89.9288 256.442 91.4829 256.442 93.6111C256.442 95.7393 254.805 97.2935 252.586 97.2935C250.366 97.2935 248.729 95.7284 248.729 93.6111ZM255.101 93.6111C255.101 92.1482 254.027 91.0949 252.585 91.0949C251.142 91.0949 250.069 92.1482 250.069 93.6111C250.069 95.0741 251.142 96.1273 252.585 96.1273C254.027 96.1273 255.101 95.0741 255.101 93.6111Z" fill="white"/>
<path d="M268.068 90.0309V97.1907H266.973L263.025 92.3429V97.1907H261.706V90.0309H262.8L266.748 94.8786V90.0309H268.068Z" fill="white"/>
<path d="M279.918 96.4335L280.379 95.4005C280.951 95.8609 281.862 96.1881 282.741 96.1881C283.856 96.1881 284.327 95.7893 284.327 95.2572C284.327 93.7132 280.072 94.7259 280.072 92.0664C280.072 90.9103 280.992 89.9288 282.956 89.9288C283.815 89.9288 284.715 90.1546 285.339 90.5629L284.919 91.5966C284.274 91.218 283.569 91.0341 282.945 91.0341C281.841 91.0341 281.391 91.4641 281.391 92.0056C281.391 93.5293 285.635 92.5376 285.635 95.166C285.635 96.3119 284.704 97.2935 282.741 97.2935C281.626 97.2935 280.511 96.946 279.918 96.4335Z" fill="white"/>
<path d="M296.178 96.0759V97.1907H290.808V90.0309H296.035V91.1456H292.138V93.0067H295.595V94.1012H292.138V96.0759H296.178Z" fill="white"/>
<path d="M306.2 97.1907L304.737 95.0944C304.645 95.1045 304.553 95.1045 304.461 95.1045H302.845V97.1914H301.515V90.0316H304.461C306.343 90.0316 307.509 90.9929 307.509 92.5789C307.509 93.6625 306.956 94.461 305.985 94.8388L307.631 97.1914H306.199L306.2 97.1907ZM304.4 91.1558H302.846V94.0093H304.4C305.566 94.0093 306.169 93.4779 306.169 92.5774C306.169 91.6769 305.566 91.1558 304.4 91.1558Z" fill="white"/>
<path d="M319.392 90.0309L316.272 97.1907H314.962L311.833 90.0309H313.275L315.658 95.554L318.061 90.0309H319.391H319.392Z" fill="white"/>
<path d="M324.002 90.0309H325.332V97.1907H324.002V90.0309Z" fill="white"/>
<path d="M330.607 93.6111C330.607 91.4735 332.244 89.9288 334.442 89.9288C335.609 89.9288 336.611 90.3479 337.276 91.1253L336.416 91.9332C335.894 91.3707 335.25 91.0949 334.503 91.0949C333.02 91.0949 331.946 92.1373 331.946 93.6111C331.946 95.0849 333.02 96.1273 334.503 96.1273C335.249 96.1273 335.894 95.8515 336.416 95.2782L337.276 96.0969C336.611 96.8736 335.609 97.2935 334.432 97.2935C332.244 97.2935 330.607 95.7487 330.607 93.6111Z" fill="white"/>
<path d="M347.778 96.0759V97.1907H342.408V90.0309H347.635V91.1456H343.738V93.0067H347.194V94.1012H343.738V96.0759H347.778Z" fill="white"/>
<path d="M352.511 96.4335L352.971 95.4005C353.545 95.8609 354.455 96.1881 355.335 96.1881C356.45 96.1881 356.919 95.7893 356.919 95.2572C356.919 93.7132 352.665 94.7259 352.665 92.0664C352.665 90.9103 353.585 89.9288 355.549 89.9288C356.408 89.9288 357.308 90.1546 357.932 90.5629L357.513 91.5966C356.868 91.218 356.163 91.0341 355.538 91.0341C354.434 91.0341 353.984 91.4641 353.984 92.0056C353.984 93.5293 358.228 92.5376 358.228 95.166C358.228 96.3119 357.298 97.2935 355.334 97.2935C354.219 97.2935 353.105 96.946 352.511 96.4335Z" fill="white"/>
<path d="M66.5637 47.391H57.8931C57.8931 42.6026 61.7753 38.7205 66.5637 38.7205V47.391Z" fill="white"/>
<path d="M77.8063 47.391H69.1357V38.7205C73.9241 38.7205 77.8063 42.6026 77.8063 47.391Z" fill="white"/>
<path d="M66.5638 49.9622H57.8933V58.6328H66.5638V49.9622Z" fill="white"/>
<path d="M77.8063 49.9622H69.1357V58.6328H77.8063V49.9622Z" fill="white"/>
<g style="mix-blend-mode:screen">
<path d="M135.573 24.466C131.864 20.7576 125.85 20.7576 122.142 24.466L111.872 34.732L102.82 43.7855L100.544 46.0606L69.7878 76.8209C68.3024 78.3026 65.8977 78.3026 64.4152 76.8209L48.3821 60.7871C44.6737 57.0787 38.6598 57.0787 34.9506 60.7871L29.8524 65.8897C29.8488 65.8933 29.8444 65.8933 29.8444 65.8933L61.7289 97.7741C64.696 100.742 69.5062 100.742 72.4733 97.7741L140.679 29.5722L135.573 24.466Z" fill="white"/>
</g>
<path d="M87.0726 15.0933C87.06 15.087 87.0472 15.0774 87.0342 15.0643L82.9443 10.8977C82.9443 10.8977 82.9429 10.8977 82.9414 10.8977L79.2982 7.18933L75.6744 3.49396L75.3103 3.12985V3.12044C75.1858 2.98652 75.0519 2.86201 74.918 2.74692C74.7841 2.63182 74.6502 2.50732 74.5155 2.39222C74.2376 2.17216 73.9502 1.95138 73.6635 1.76028C73.2227 1.46349 72.763 1.20507 72.294 0.984287C69.4875 -0.328096 66.212 -0.328096 63.4055 0.984287C62.9357 1.20434 62.4761 1.46349 62.0352 1.76028C61.7478 1.95211 61.4612 2.17216 61.1832 2.39222C61.0493 2.50732 60.9147 2.63182 60.7808 2.74692C60.6468 2.86201 60.5129 2.98652 60.3884 3.12044V3.12985L60.1749 3.34629C60.0467 3.39768 59.9143 3.43749 59.7876 3.49396L52.5271 10.8977C52.6394 10.8507 52.7515 10.8159 52.8645 10.7747L0 64.5918C3.90095 68.4927 9.21491 70.091 14.2878 69.428C17.9361 68.9517 21.4614 67.315 24.2411 64.4861L67.8494 20.0924L70.3395 22.6209L81.2801 34.0841C87.9253 40.8494 98.8123 40.8979 105.518 34.192L87.0718 15.0926L87.0726 15.0933Z" fill="white"/>
</svg>
